<svg xmlns="http://www.w3.org/2000/svg" width="2874.9" height="657.3">
  <defs>
    <clipPath id="a">
      <path d="M0 0v1134h4252V0H0" clip-rule="evenodd"/>
    </clipPath>
  </defs>
  <path fill="none" d="M-97-86h3061v829H-97z"/>
  <path fill="none" d="M418.6 202H955v390.2H418.7z"/>
  <path fill="#231f20" d="M-170.7-29.6h3097v695h-3097z"/>
  <g>
    <g clip-path="url(#a)" transform="matrix(1.25 0 0 -1.25 -1194.03 1004.28)">
      <path fill="none" stroke="#fff" stroke-width="109.5" stroke-miterlimit="10" d="M1018 404.3v233-4c0 16.8 4 37.6 13 53.2 27 47 87 63 133.7 36 28.4-16.6 45.5-45.5 48.4-76 1.3 14 10.5 29 18 41.8 27.4 47.8 83.4 63.3 131 35.7 31.7-18.5 49.6-52 49.6-86.6v-233L1411 637c0 34.3-17.7 67.7-49.3 86-47.2 27.4-107.5 11-134.8-36.3-9-15.6-13-32.5-13.2-49V404.2l-.8 233v1c-.4 33.3-17.8 65.6-48.5 83.4-46.3 27-105.7 11-132.4-35.7-8.7-15.2-13-31.8-13-48l-.8-233.7z" stroke-linejoin="bevel"/>
      <path fill="#fff" fill-rule="evenodd" d="M2003.5 661.4V528.2h-432.3v133.2h432.3z"/>
      <path fill="#0091dd" fill-rule="evenodd" d="M2180 424c-94 59.2-122.3 183.5-63 277.4 59 94 183.3 122.3 277.3 63 13-8.2 25-17.7 35.4-28.2l-78-78-.3-128.5 77.8-78c-65-64.8-168.4-78.7-249.3-27.7z"/>
      <path fill="#fff" fill-rule="evenodd" d="M2196.4 603.3c5 50 49.7 86.6 99.7 81.6 50.2-5 86.8-49.8 81.8-100-5-50-49.7-86.5-99.8-81.5-50 5-86.6 49.7-81.6 99.8zM3046.2 793.3c-111 0-201-89.3-201-199.5 0-110.3 90-199.6 201-199.6s201 89.3 201 199.6c0 110.2-90 199.5-201 199.5zm-.7-109.6c51 0 92-40.8 92-91.2 0-50.3-41-91.2-92-91.2s-92.2 41-92.2 91.2c0 50.4 41.3 91.2 92.2 91.2zM2545.6 783.3v-379h106v379h-106z"/>
      <path fill="#fff" fill-rule="evenodd" d="M2545.6 747.7V404.3h110v343.4h-110z"/>
      <path fill="#fff" fill-rule="evenodd" d="M2655.6 649.8c12.8 65 82.5 14 86.5 10l53 100.4c-21.4 19.2-104.3 62.6-143.3-13l4-97.4z"/>
      <path fill="#fff" d="M972.7 286.5V338h7l27-40.4V338h6.6v-51.5h-7l-27 40.5v-40.5h-6.6zM1069 311.6c0 8.6 2.3 15.3 7 20 4.5 5 10.4 7.4 17.7 7.4 4.7 0 9-1.2 13-3.5 3.7-2.2 6.6-5.4 8.6-9.5 2-4 3-8.6 3-13.8 0-5.2-1-10-3.2-14-2-4.2-5-7.3-8.8-9.4-4-2-8-3.2-12.6-3.2-4.8 0-9 1.2-13 3.5-3.8 2.5-6.7 5.7-8.6 9.7-2 4-3 8.4-3 13zm7 0c0-6.3 1.7-11.2 5-14.8 3.4-3.6 7.6-5.3 12.6-5.3s9.4 1.8 12.7 5.4c3.3 3.5 5 8.6 5 15.2 0 4.2-.7 8-2.2 11-1.3 3-3.4 5.6-6 7.3-2.8 1.7-6 2.6-9.3 2.6-4.8 0-9-1.6-12.4-5-3.5-3.2-5.3-8.7-5.3-16.5zM1186.5 286.5V332h-17v6h41v-6h-17.2v-45.5h-6.8zM1264 286.5V338h6.7v-21h26.8v21h6.8v-51.5h-6.8v24.3h-26.8v-24.3h-6.8zM1363 286.5V338h7v-51.5h-7zM1428.2 286.5V338h7l27-40.4V338h6.6v-51.5h-7l-27 40.5v-40.5h-6.6zM1550.7 306.7v6h21.8v-19c-3.3-2.7-6.8-4.7-10.4-6-3.4-1.4-7-2-10.8-2-5 0-9.7 1-13.8 3.2-4.2 2-7.3 5.2-9.4 9.3-2 4-3 8.7-3 13.7s1 9.7 3 14c2 4.4 5 7.6 9 9.8 4 2 8.5 3 13.7 3 3.7 0 7-.5 10-1.7 3-1 5.4-2.8 7-5 1.8-2 3.2-5 4-8.4l-6-1.7c-1 2.6-1.8 4.6-3 6-1 1.6-2.8 2.8-5 3.7-2 1-4.4 1.4-7 1.4-3 0-5.8-.4-8-1.3-2.4-1-4.2-2.2-5.6-3.8-1.3-1.6-2.4-3.3-3.2-5.2-1.3-3.2-2-6.6-2-10.4 0-4.5 1-8.4 2.4-11.5 1.6-3.2 4-5.5 7-7s6.2-2.2 9.6-2.2c3 0 5.8.5 8.6 1.7 2.8 1 5 2.3 6.4 3.6v9.7h-15zM1695 286.5V338h19.2c4 0 7-.5 9.5-1.5 2.4-1 4.2-2.7 5.6-4.8 1.4-2.2 2-4.5 2-6.8s-.6-4.4-1.8-6.4c-1.2-2-3-3.5-5.4-4.7 3.2-1 5.6-2.6 7.3-4.8 1.7-2.2 2.5-4.8 2.5-7.8 0-2.4-.5-4.6-1.5-6.7-1-2-2.3-3.7-3.8-4.8-1.5-1.2-3.4-2-5.6-2.6-2.4-.6-5.2-1-8.5-1H1695zm6.7 30h11.2c3 0 5 0 6.4.5 1.7.5 3 1.4 4 2.5.8 1.2 1.2 2.7 1.2 4.5 0 1.8-.4 3.3-1.2 4.6-.8 1.3-2 2.2-3.5 2.6-1.7.5-4.3.8-8 .8h-10.3v-15.6zm0-24h12.8c2.3 0 3.8.2 4.7.3 1.6.3 3 .8 4 1.4 1 .7 2 1.6 2.5 3 .7 1.2 1 2.6 1 4.2 0 2-.4 3.6-1.4 5-1 1.5-2.4 2.5-4 3-2 .6-4.4 1-7.7 1h-12v-17.8zM1789.7 286.5V338h37.2v-6h-30.5v-15.8h28.5v-6h-28.5v-17.6h31.6v-6h-38.3zM1878.2 286.5L1898 338h7.3l21-51.5h-7.7l-6 15.6H1891l-5.6-15.5h-7.2zm14.8 21.2h17.5L1905 322c-1.5 4.3-2.7 7.8-3.5 10.6-.7-3.3-1.6-6.6-2.8-9.8l-5.7-15zM1986 286.5V332h-17v6h40.8v-6h-17v-45.5h-7zM2060.8 303l6.4.6c.3-2.6 1-4.7 2-6.3 1.3-1.7 3-3 5.3-4 2.4-1 5-1.6 8-1.6 2.5 0 4.8.4 6.8 1.2 2 .7 3.5 1.7 4.5 3 1 1.4 1.4 3 1.4 4.5 0 1.6-.4 3-1.4 4.2-1 1.2-2.5 2.2-4.6 3-1.4.6-4.5 1.4-9.2 2.6-4.7 1-8 2.2-10 3.2-2.4 1.3-4.2 3-5.5 4.8-1.2 2-1.8 4-1.8 6.4 0 2.6.8 5 2.3 7.3 1.4 2.3 3.6 4 6.4 5.2 3 1 6 1.7 9.5 1.7 3.7 0 7-.7 10-2 3-1.2 5-3 6.7-5.4 1.6-2.4 2.4-5 2.6-8l-6.6-.6c-.3 3.3-1.5 5.7-3.6 7.4-2 1.7-5 2.5-8.8 2.5-4.2 0-7.2-.8-9-2.4-2-1.5-3-3.3-3-5.4 0-2 .8-3.4 2-4.6 1.4-1.2 5-2.4 10.4-3.7 5.5-1.3 9.3-2.4 11.4-3.4 3-1.3 5.2-3 6.7-5.2 1.4-2 2-4.6 2-7.3s-.7-5.3-2.3-7.7c-1.5-2.4-3.8-4.3-6.7-5.7-3-1.3-6.3-2-10-2-4.6 0-8.5.7-11.7 2-3 1.4-5.6 3.5-7.4 6.2-1.8 2.7-2.7 5.8-2.8 9.3zM2235.5 286.5V332h-17v6h41v-6h-17v-45.5h-7zM2313 286.5V338h6.7v-21h26.8v21h7v-51.5h-7v24.3h-26.8v-24.3h-6.8zM2411.2 286.5V338h37.2v-6H2418v-15.8h28.5v-6H2418v-17.6h31.6v-6h-38.4zM2569.6 311.6c0 8.6 2.3 15.3 7 20 4.4 5 10.4 7.4 17.6 7.4 4.8 0 9-1.2 13-3.5 3.7-2.2 6.6-5.4 8.6-9.5 2-4 3-8.6 3-13.8 0-5.2-1-10-3-14-2.2-4.2-5.2-7.3-9-9.4-4-2-8-3.2-12.6-3.2-4.8 0-9.2 1.2-13 3.5-3.8 2.5-6.7 5.7-8.7 9.7-2 4-3 8.4-3 13zm7 0c0-6.3 1.7-11.2 5-14.8 3.4-3.6 7.5-5.3 12.6-5.3 5 0 9.3 1.8 12.7 5.4 3.2 3.5 4.8 8.6 4.8 15.2 0 4.2-.7 8-2 11-1.5 3-3.6 5.6-6.3 7.3-2.8 1.7-5.8 2.6-9.2 2.6-4.8 0-9-1.6-12.5-5-3.5-3.2-5.2-8.7-5.2-16.5zM2674 286.5V338h23c4.5 0 8-.4 10.4-1.4 2.4-1 4.3-2.5 5.7-5 1.5-2.2 2.3-4.8 2.3-7.6 0-3.7-1.2-6.8-3.6-9.3-2.4-2.5-6-4-11-4.8 1.8-1 3.2-1.8 4.2-2.6 1.8-1.8 3.7-4 5.5-7l9-14h-8.6l-7 10.8c-2 3-3.6 5.5-5 7-1 1.8-2.3 3-3.3 3.6-1 .6-2 1-3 1.3-1 .3-2.2.4-4 .4h-7.8v-23h-7zm7 28.8h14.5c3.2 0 5.6.3 7.3 1 1.8.6 3 1.6 4 3 1 1.5 1.4 3 1.4 4.7 0 2.4-1 4.4-2.6 6-1.8 1.6-4.6 2.3-8.4 2.3H2681v-17zM2773.4 286.5V338h6.8v-51.5h-6.8zM2862.7 306.7v6h21.8v-19c-3.4-2.7-6.8-4.7-10.4-6-3.4-1.4-7-2-10.8-2-5 0-9.7 1-13.8 3.2-4.2 2-7.3 5.2-9.4 9.3-2 4-3.2 8.7-3.2 13.7s1 9.7 3.2 14c2 4.4 5 7.6 9 9.8 4 2 8.5 3 13.6 3 3.8 0 7-.5 10-1.7 3.2-1 5.5-2.8 7.2-5 1.7-2 3-5 4-8.4l-6.2-1.7c-.8 2.6-1.8 4.6-3 6-1 1.6-2.7 2.8-4.8 3.7-2.2 1-4.5 1.4-7 1.4-3.2 0-6-.4-8.2-1.3-2.3-1-4-2.2-5.5-3.8-1.3-1.6-2.4-3.3-3.2-5.2-1.3-3.2-2-6.6-2-10.4 0-4.5.8-8.4 2.4-11.5 1.6-3.2 4-5.5 7-7s6.2-2.2 9.6-2.2c3 0 5.8.5 8.6 1.7 2.8 1 5 2.3 6.4 3.6v9.7h-15zM2942 286.5V338h6.8v-51.5h-6.8zM3007 286.5V338h7l27.2-40.4V338h6.5v-51.5h-7l-27 40.5v-40.5h-6.6zM3099.8 286.5l19.8 51.5h7.3l21-51.5h-7.7l-6 15.6h-21.6l-5.7-15.5h-7.2zm15 21.2h17.3L3127 322c-1.7 4.3-3 7.8-3.7 10.6-.6-3.3-1.5-6.6-2.7-9.8l-5.6-15zM3199.5 286.5V338h6.8v-45.4h25.4v-6h-32.2z"/>
    </g>
  </g>
</svg>
