<svg xmlns="http://www.w3.org/2000/svg" width="1643.9" height="382.4">
  <path fill="#00aeef" d="M-43-46H1723v460H-43z"/>
  <path fill="#231f20" d="M17.6 177c-4.5-3.2-7.6-9-7.6-15.3 0-10.5 8.4-18.6 19-18.6 5 0 8.8 2 11.4 3.8 14 10.2 29 16.5 47 16.5 16.4 0 26.4-6.6 26.4-17.3v-.5c0-10.2-6.3-15.5-37-23.3-37-9.5-60.8-19.7-60.8-56v-.6c0-33.3 26.8-55.3 64.2-55.3 22.3 0 41.7 5.7 58.2 16.2 4.5 2.6 9 8 9 16 0 10.5-8.5 18.6-19 18.6-4 0-7-1-10.2-2.8C105 50.4 92.2 46 79.7 46 64.2 46 56 53 56 62v.4c0 12 8 16 39.7 24 37.2 9.8 58.2 23.2 58.2 55v.7c0 36.5-28 57-67.5 57-24 0-48.5-7.4-69-22M194.2 176V33c0-11.2 9-20 20.2-20H316c10 0 18 8 18 18s-8 17.8-18 17.8h-81.7V86h70c10 0 18 8 18 18s-8 18-18 18h-70v38.4h83c10 0 18 8 18 18s-8 18-18 18h-103c-11.2 0-20-9-20-20.3M375 32c0-11.3 9-20.2 20.2-20.2h4.4c8.7 0 14.7 4.5 18.4 10.5l48.7 79.4 49-79.6c4.2-6.8 10-10.2 18-10.2h4.5c11.3 0 20.2 9 20.2 20.2v145.7c0 11.3-9 20.2-20.2 20.2-11 0-20-9.3-20-20.3V86.3L483 140.8c-4.2 6.2-9.5 10.2-16.8 10.2-7.4 0-12.6-4-16.8-10.2L414.6 87v91.2c0 11-9 19.7-20 19.7S375 189 375 178V32z"/>
  <path fill="#fff" d="M683 112.7c30.3 0 50.2-16.2 50.2-40.3v-.6c0-26.2-19.7-39.8-49.3-39.8h-46.4v80.7H683zm-66-89.3c0-5.8 4.6-10.5 10-10.5h58.5c41.4 0 68.7 22 68.7 58v.6c0 39.5-33 60-72 60h-44.6V187c0 6-4.8 10.6-10.5 10.6-5.4 0-10-4.7-10-10.5V23.5zM882.8 129l-42.2-93.8-42.2 93.8h84.4zM753 182.7L827.6 20c2.6-5.8 6.6-9.2 13-9.2h1.2c6.3 0 10.4 3.4 12.8 9.2L929 182.4c.7 1.8 1.2 3.7 1.2 5.3 0 5.5-4.4 10-10 10-5 0-8.3-3.5-10-7.7l-19.3-42.2H790.2l-19 42.7c-2 4.5-5.4 7-10 7-5.3 0-9.5-4-9.5-9.3 0-1.6.3-3.4 1.3-5.5"/>
  <path fill="#231f20" d="M972 50h-39c-10 0-18.5-8.3-18.5-18.5S923 13 933 13h118c10.2 0 18.6 8.3 18.6 18.5S1061.2 50 1051 50h-38.8v127.7c0 11.3-9 20.2-20 20.2-11.4 0-20.3-9-20.3-20.3V50zM1058 183c-4-3.2-7.5-9.2-7.5-15.5 0-10.8 8.4-19.4 19-19.4 5 0 8.3 1.4 12.2 4.3 8 6 15.2 9.2 24.4 9.2 15.8 0 25.2-9.2 25.2-30.4V31.6c0-11.3 9-20.2 20.2-20.2s20.2 9 20.2 20.2V133c0 21.6-6.3 38-17.3 49-11.3 11.2-27.8 17-47.7 17-21 0-37-7.2-48.5-16M1313.3 119.5L1288 59l-25.5 60.5h50.8zm-113.4 51L1263.7 26c4.4-10 12.6-16 23.6-16h2.3c11 0 19 6 23.4 16l64 144.4c1.3 2.8 2 5.5 2 8 0 10.8-8.3 19.5-19 19.5-9.5 0-15.8-5.6-19.4-14l-12.3-28.8h-80.8l-12.8 30c-3.4 8-10.2 12.7-18.6 12.7-10.4 0-18.5-8.5-18.5-19 0-3 1-5.8 2.4-8.6"/>
  <path fill="#fff" d="M615.4 348.5c-.7-.6-1.5-1.6-1.5-3 0-2 1.5-3.7 3.6-3.7.8 0 1.5.2 2 .7 6 4 12 6 18 6 7 0 12-3.5 12-9v-.3c0-5.7-6.8-7.8-14.3-10-9-2.5-18.8-5.6-18.8-16v-.2c0-9.8 8-16.3 19.4-16.3 6 0 12.5 2 18 5 1 .5 2 1.7 2 3.4 0 2-1.6 3.7-3.6 3.7-.8 0-1.5-.2-2-.4-4.8-2.8-10-4.4-14.8-4.4-6.6 0-11 3.4-11 8v.3c0 5.4 7 7.5 14.7 9.8 8.8 2.8 18.2 6.2 18.2 16.4v.2c0 10.8-9 17-20.2 17-7.5 0-15.7-2.7-22-7M673.2 278c0-2.3 2-4.2 4.2-4.2 2.4 0 4.3 2 4.3 4.3v52.2l30.7-31.4c1-1 2-1.6 3.4-1.6 2.3 0 3.8 1.8 3.8 4 0 1.2-.6 2-1.7 3.2l-18.7 18.2 20.4 25.7c.7 1 1 1.7 1 2.8 0 2.4-1.7 4-4 4-1.5 0-2.5-.4-3.6-2l-19.6-24.7-11.7 11.6v10.8c0 2.4-1.8 4.3-4.2 4.3-2.4 0-4.3-1.8-4.3-4.2V278zM736.4 301.4c0-2.2 2-4.2 4.2-4.2 2.4 0 4.2 1.8 4.2 4.2v49.4c0 2.4-1.7 4.3-4 4.3-2.5 0-4.4-1.8-4.4-4.2v-49.4zm-.8-21.5c0-2.8 2.2-4.6 5-4.6s5 1.8 5 4.5v1.4c0 2.6-2.2 4.5-5 4.5s-5-2-5-4.6V280zM764.5 301.4c0-2.2 1.8-4.2 4.2-4.2 2.4 0 4.3 1.8 4.3 4.2V312c4-9.3 12.4-15 19.6-15 2.5 0 4 1.8 4 4.2 0 2.3-1.4 4-3.6 4.3-11 1.4-20 9.6-20 26v19.3c0 2.3-1.8 4.3-4.2 4.3-2.5 0-4.3-1.8-4.3-4.2v-49.4zM853.6 326.4v-.2c0-12.2-9-22.2-21-22.2-12.4 0-20.8 10-20.8 22v.2c0 12.2 9 22 21 22 12.3 0 20.8-9.8 20.8-21.8m-50.5 0v-.2c0-16 12.6-29.7 29.7-29.7 17 0 29.6 13.4 29.6 29.5v.2c0 16-12.6 29.7-29.8 29.7-17 0-29.4-13.5-29.4-29.6M877.6 280c0-2.8 2.2-4.6 5-4.6s5 1.8 5 4.5v1.4c0 2.6-2.2 4.5-5 4.5s-5-2-5-4.6V280zm-6.3 92.3c-2.4 0-4.3-1.3-4.3-3.6 0-2 1.7-3.5 3.6-3.5h1.8c3.5 0 6-2.2 6-7v-56.8c0-2.2 1.8-4.2 4-4.2 2.5 0 4.4 1.8 4.4 4.2v56.4c0 10-5.3 14.6-13.5 14.6h-2M907.3 301.4c0-2.2 1.8-4.2 4-4.2 2.5 0 4.4 1.8 4.4 4.2v49.4c0 2.4-1.8 4.3-4.2 4.3-2.4 0-4.2-1.8-4.2-4.2v-49.4zm-.8-21.5c0-2.8 2.2-4.6 5-4.6s5 1.8 5 4.5v1.4c0 2.6-2.2 4.5-5 4.5s-5-2-5-4.6V280zM969 301.4c0-2.2 2-4.2 4.3-4.2 2.4 0 4.3 1.8 4.3 4.2v49.4c0 2.4-1.8 4.3-4.2 4.3-2.4 0-4.3-1.8-4.3-4.2v-49.4zm-.7-21.5c0-2.8 2.2-4.6 5-4.6s5 1.8 5 4.5v1.4c0 2.6-2.2 4.5-5 4.5s-5-2-5-4.6V280zM997.2 301.4c0-2.2 2-4.2 4.2-4.2 2.4 0 4.3 1.8 4.3 4.2v6.2c3.7-6.2 9.7-11 19.5-11 13.6 0 21.7 9.2 21.7 22.7v31.5c0 2.4-2 4.3-4.3 4.3-2.4 0-4.3-1.8-4.3-4.2v-29.5c0-10.5-5.7-17-15.7-17-9.7 0-17 7-17 17.7v28.8c0 2.4-1.8 4.3-4.2 4.3-2.4 0-4.3-1.8-4.3-4.2v-49.4zM1103.3 326v.2c0 13.4 9.3 22 20 22 10.5 0 20.5-9 20.5-22v-.2c0-13-10-22-20.5-22-11 0-20 8.2-20 22m48.6 24.8c0 2.4-2 4.3-4.2 4.3-2.5 0-4.3-1.8-4.3-4.2V343c-4.7 7-11.3 12.7-21.8 12.7-13.6 0-27-10.7-27-29.4v-.2c0-18.5 13.4-29.5 27-29.5 10.6 0 17.4 5.7 21.8 12v-30.4c0-2.4 1.7-4.2 4.2-4.2 2.3 0 4.2 1.8 4.2 4.3V351zM1170.8 301.4c0-2.2 2-4.2 4.2-4.2 2.4 0 4.3 1.8 4.3 4.2V312c4.2-9.3 12.4-15 19.5-15 2.6 0 4.3 1.8 4.3 4.2 0 2.3-1.5 4-3.7 4.3-11 1.4-20 9.6-20 26v19.3c0 2.3-1.8 4.3-4.2 4.3-2.3 0-4.2-1.8-4.2-4.2v-49.4zM1264 350.8c0 2.3-1.7 4.3-4 4.3-2.5 0-4.3-1.8-4.3-4.2v-6c-4 6-9.7 11-19.5 11-13.7 0-21.7-9.3-21.7-22.8v-31.6c0-2.4 1.7-4.2 4-4.2 2.4 0 4.5 1.8 4.5 4.2V331c0 10.5 5.6 17 15.6 17 9.7 0 17-7 17-17.8v-28.8c0-2.4 1.8-4.2 4.3-4.2 2 0 4 1.8 4 4.2v49.4zM1329 323.4v-.2c0-11.6-10.2-19.2-21-19.2-10.7 0-19.6 7.5-19.6 19v.3c0 11.4 9 19.4 19.7 19.4 10.8 0 21-7.8 21-19.3m-44.5 42.2c-1.4-.6-2.3-2-2.3-3.5 0-1.7 2-3.6 4-3.6.7 0 1.2.2 1.8.5 6 4 12.7 6 20 6 12.6 0 20.7-6.8 20.7-20.2v-6.6c-5 6.6-11.8 12-22.3 12-13.6 0-26.7-10.3-26.7-26.7v-.2c0-16.6 13.2-26.8 26.7-26.8 10.6 0 17.6 5.3 22.2 11.5v-6.6c0-2.2 1.8-4.2 4.2-4.2 2.4 0 4.3 2 4.3 4.2v43.3c0 8.7-2.5 15.4-7.2 20-5 5-12.6 7.6-21.6 7.6-8.7 0-16.6-2.2-23.7-6.7M1397.6 323c-1-10.3-6.8-19.4-18-19.4-10 0-17.5 8.3-18.6 19.4h36.6zm-16.8 33c-15.6 0-28.3-12-28.3-29.7v-.2c0-16.3 11.5-29.5 27.2-29.5 16.8 0 26.4 13.7 26.4 28.8 0 2.3-1.8 4-4 4h-41c1.2 12.3 10 19.2 20 19.2 7 0 12.2-2.7 16.4-6.6.7-.6 1.4-1 2.4-1 2 0 3.7 1.6 3.7 3.5 0 1-.4 2-1.3 2.8-5.4 5-11.7 8.6-21.4 8.6M1454 301.4c0-2.2 2-4.2 4-4.2 2.6 0 4.4 1.8 4.4 4.2V312c4.2-9.3 12.5-15 19.6-15 2.5 0 4.2 1.8 4.2 4.2 0 2.3-1.6 4-3.7 4.3-11 1.4-20 9.6-20 26v19.3c0 2.3-1.8 4.3-4.2 4.3-2.4 0-4.3-1.8-4.3-4.2v-49.4zM1537.7 323c-.8-10.3-6.8-19.4-18-19.4-10 0-17.5 8.3-18.6 19.4h36.7zm-16.8 33c-15.7 0-28.5-12-28.5-29.7v-.2c0-16.3 11.6-29.5 27.3-29.5 16.8 0 26.4 13.7 26.4 28.8 0 2.3-2 4-4 4h-41c1 12.3 9.8 19.2 20 19.2 7 0 12-2.7 16.3-6.6.6-.6 1.4-1 2.4-1 2 0 3.6 1.6 3.6 3.5 0 1-.4 2-1.3 2.8-5.3 5-11.7 8.6-21.4 8.6M1592.8 276.3c1.8-1.6 3-2 5.2-2 1.2 0 2 .7 2 1.6 0 .4-.3 1-.8 1.6l-7.7 9.5c-1.2 1.6-2.3 2.6-4.3 2.6h-2c-2 0-3.2-1-4.4-2.5l-7.7-9.4c-.4-.6-.7-1.2-.7-1.7 0-1 1-1.7 2-1.7 2.2 0 3.6.4 5.5 2l6.5 5.8 6.5-5.7zm-35.2 50c0-16.2 12.5-29.8 29-29.8 9.6 0 16 3.6 21 8.2.6.6 1.3 1.7 1.3 3 0 2.3-2 4-4.2 4-1 0-2-.3-2.7-1-4-3.7-8.6-6.7-15.4-6.7-11.5 0-20.3 9.8-20.3 22v.2c0 12.3 9 22 21 22 6.3 0 11.5-3 15.7-6.8.5-.6 1.3-1 2.4-1 2 0 4 1.7 4 3.7 0 1-.6 2-1.3 2.7-5.2 5.4-11.7 9.2-21.3 9.2-16.6 0-29-13.7-29-29.6M1624.6 301.4c0-2.2 2-4.2 4.2-4.2 2.4 0 4.3 1.8 4.3 4.2v49.4c0 2.4-1.7 4.3-4 4.3-2.5 0-4.4-1.8-4.4-4.2v-49.4zm-.7-21.5c0-2.8 2-4.6 4.8-4.6 3 0 5 1.8 5 4.5v1.4c0 2.6-2 4.5-5 4.5-2.8 0-5-2-5-4.6V280z"/>
</svg>
