<svg xmlns="http://www.w3.org/2000/svg" width="894.5" height="346.8">
  <defs>
    <clipPath id="a">
      <path d="M-233-101.6H38V42h-271v-143.6z" clip-rule="evenodd"/>
    </clipPath>
    <clipPath id="b">
      <path d="M90 139.8v353.5h932.7V139.8H90z" clip-rule="evenodd"/>
    </clipPath>
    <clipPath id="c">
      <path d="M-127.7-57H-.5v248.5h-127.2V-57z" clip-rule="evenodd"/>
    </clipPath>
    <clipPath id="d">
      <path d="M-485.3-257.3V96.2h932.8v-353.5h-932.8z" clip-rule="evenodd"/>
    </clipPath>
    <clipPath id="e">
      <path d="M-188.3-130H9.3v247.4h-197.6V-130z" clip-rule="evenodd"/>
    </clipPath>
    <clipPath id="f">
      <path d="M90 139.8v353.5h932.7V139.8H90z" clip-rule="evenodd"/>
    </clipPath>
  </defs>
  <g clip-path="url(#a)" transform="translate(539.65 105.25) scale(.9375)">
    <path fill="#176fc0" d="M0 0c-9 4.2-19.4.2-23.5-8.8-14-31-44.8-51-78.7-51.2-38.3-.3-72 24.2-83.7 60.6-1.2 4.5-4.2 8-8.6 10.3-4 2-8.8 2.4-13.4 1-4.5-1.4-8-4.6-10.2-8.8-2-4.2-2.6-9-1.2-13.4 16.7-51.2 63.7-85.5 117.5-85 47.6.2 91 28.5 110.6 71.8C12.6-14.6 8.6-4 0 0zm-96.3-102c-61.3-.2-115 38.5-133.8 97-3 8.8-2.2 18.3 2.2 26.6 4.3 8.3 11.5 14.6 20.3 17.3 8.8 3 18.2 2 26.5-2.2 8.4-4.3 14.4-11.5 17.2-20.3 9.6-29.3 36.4-49 67-48.5 27.2.2 52.2 16.2 63.4 41 8 17.4 28.6 25.4 46.2 17.2 17.4-7.8 25-28.8 17-46.2-22.3-49.6-72-81.6-126-82z"/>
  </g>
  <g clip-path="url(#b)" transform="translate(-74.3 -121.1) scale(.9375)">
    <path fill="#176fc0" d="M714 209.8h2.2c1.2 0 2 0 2.4-.2.3 0 .6-.5.8-.6 0-.4.3-.7.3-1.2l-.3-1-1.2-.6H714v3.6zm-2.8 8V204h6c1.4 0 2.5 0 3 .3.8.2 1.4.7 2 1.3.2.6.4 1.3.4 2 0 1.2-.2 2.2-.8 2.8-.8.6-1.6 1-3 1.3.7.3 1.2.6 1.5 1 .5.4 1 1.2 1.8 2.3l1.7 2.8h-3.4l-2-3c-.7-1.2-1.2-1.8-1.3-2.2-.4 0-.7-.4-1-.4-.2-.2-.6-.2-1.3-.2h-.8v5.8h-2.8z"/>
    <path fill="none" stroke="#176fc0" stroke-width="1.6" stroke-miterlimit="1" d="M730.2 210.2c.2 7.7-6 13.8-13.6 13.8-7.6.2-13.7-6-13.7-13.6 0-7.8 6-14 13.5-14 7.7 0 13.7 6.2 13.7 13.8z"/>
    <path fill="#eb008b" d="M663.5 218c-19.7-43.3-63-71.6-110.5-71.8-53.8-.4-100.8 33.8-117.5 85-1.4 4.5-1 9.3 1 13.4 2.4 4.2 6 7.4 10.4 8.8 4.5 1.5 9.2 1 13.3-1 4.3-2.3 7.4-5.8 8.7-10.3 11.8-36.4 45.4-61 83.6-60.6 34 .2 64.8 20.4 78.8 51.2 4 9 14.5 13 23.5 8.8 8.5-4 12.5-14.5 8.5-23.3z"/>
    <path fill="none" stroke="#fefefe" stroke-width="3.2" stroke-miterlimit="1" d="M663.5 218c-19.7-43.3-63-71.6-110.5-71.8-53.8-.4-100.8 33.8-117.5 85-1.4 4.5-1 9.3 1 13.4 2.4 4.2 6 7.4 10.4 8.8 4.5 1.5 9.2 1 13.3-1 4.3-2.3 7.4-5.8 8.7-10.3 11.8-36.4 45.4-61 83.6-60.6 34 .2 64.8 20.4 78.8 51.2 4 9 14.5 13 23.5 8.8 8.5-4 12.5-14.5 8.5-23.3z"/>
  </g>
  <g clip-path="url(#c)" transform="translate(884.95 151.9) scale(.9375)">
    <path fill="#176fc0" d="M0 0v-2c0-14-5-27-14.4-37-10-10.8-23.2-17-38-17.5C-66.6-57-80.5-52-91-42c-10.7 10-17 23.4-17.4 37.8-.4 10.8 2.2 21.2 7.6 30-5 1.7-9.7 4.4-14 8-7.6 7.2-12.2 16.6-12.7 27v2c0 9.7 3.7 18.8 10 26 6.5 7 15 11.4 24 12.5-.5 20.8-1.5 47-1.5 47v1.5c0 10.4 3.8 20 11 28 7.6 8 17.6 12.8 28.7 13 11 .6 21.4-3.4 29.4-10.8 8-7.5 12.7-17.8 13-28.8l3-78.4c.6-12-4.2-23-12.2-31 1.7-1 3.3-2.4 5-4C-6.8 28.3-.6 15 0 0z"/>
  </g>
  <g clip-path="url(#d)" transform="translate(464.95 251.2) scale(.9375)">
    <path fill="#176fc0" d="M0 0v-2 2zm194.6-22c-3.4-47.4-41.2-86-88.2-90-47.2-4.2-91.2 27.7-102 73.6C3-33.8 2-28.8 1.7-23.7L0-2.7.2-3s0 .3-.2.5v1L-3.2 34l-.2 3.6c.2 21 16.5 39.2 37.8 41 11 1 21.6-2.4 30-9.5C73 62 78.2 52 79 41l3-35.6V5v-.4L84-16.6c.4-4 2.3-7.2 5.2-9.8 2.8-2.4 6.5-3.5 10.4-3.2 7.6.6 13.6 7.5 12.8 15.2L110.4 7l-.2.4v.4l-2.8 35.7c-.2 1-.2 2.4-.2 3.5 0 21.3 16.2 39.4 37.6 41.2 11 .8 21.6-2.4 30-9.6 8.6-7.2 13.7-17.2 14.6-28.2l3-35.5v-.6-.5l2-21.4.3-8.4V-22z"/>
  </g>
  <g clip-path="url(#e)" transform="translate(186.55 231.25) scale(.9375)">
    <path fill="#176fc0" d="M0 0c-6.4-9-16-14.7-27-16.6-22.3-3.6-43.4 11.8-47 34.4-1.2 7.6-8.6 13-16.2 11.8-3.7-.6-7-2.6-9.3-5.8-2.3-2.8-3-6.7-2.4-10.5l4.4-25.8c10.4 1.3 20.8-1 29.3-7.5 9-6.4 14.7-16 16.5-27 .3-2 .4-4.4.4-6.8 0-8.4-2.5-17-7.8-24-6.4-9-16-14.8-27-16.6l-.5-.2c-1-6-3.5-12-7.4-17-6.5-9-16-15-27-16.6-10.7-1.7-21.6.8-30.5 7.4-7.7 5.6-13 13.4-15.4 22.6-10.8 6-18.8 16.4-20.8 29.6-.5 2-.5 4.3-.5 6.5 0 10.3 4 20 10.7 27.3l-5.8 35c-.8 5-1 10.3-1 15.5 0 46.8 33.8 88 81.2 95.6C-50.6 119.7-1 83.4 7.4 30.7 9 19.7 6.6 9 0 0z"/>
  </g>
  <g clip-path="url(#f)" transform="translate(-74.3 -121.1) scale(.9375)">
    <path fill="#176fc0" d="M511.2 365.3s.2.6.2 1.3c0-.7 0-1-.2-1.3zm84.2 12l-1.8-18.7v.8s0-.5-.2-.8v-1l-4-37.6c-1-11-6.4-21-14.8-27.8-8.5-7-19.4-10-30.3-9-21.3 2-37 20.2-37 41 0 1.6 0 2.8.2 4.3l4 37.7v.8c0 .4.2.7.2.7s-.3-.7-.3-.5l2 18.7c.4 3.6-.6 7.4-3.2 10.5-2.4 3-5.7 4.6-9.4 5-7.8.7-14.7-5-15.5-12.7l-2-18.7V370v-.8l-4-37.6c-2.3-22.8-22.7-39.4-45.2-36.8-10.8 1-20.7 6.4-27.6 14.8-6 7.6-9.3 16.7-9.3 26 0 1.6.3 3 .4 4.3l3.7 37.6c0 .5 0 0 .3.5v1l2 18.6c2.6 25.7 15 49 35 65 20 16.6 45.2 24 70.8 21.4 26-2.6 49-15.2 65.2-35.2 16.2-20 23.7-45.3 21.2-71zM941.6 435c-1.8-25.7-13.3-49-32.5-66 5.7-13.5 8.3-28.4 7.2-43.7-.7-11-5.8-21-14-28.3-8.3-7.2-19-11-30-10-22.6 1.5-39.7 21.3-38 44 0 4.2-1.4 8-4 10.8l-1.2-13.6-4-64.8c-.7-11-5.8-21-14-28.2-8.4-7.2-19-11-30-10-11 .7-21 5.7-28.2 14-7.2 8.3-10.7 19-10 30l4 65.4 1.5 22v.5c.3.4 4 52.3 4 52.3l-.3-.8.2.6V410.3l2.5 37.6c1 11 5.8 21.3 14.3 28.5 8.3 7.2 18.7 11 29.7 10 21.8-1.5 38.6-20 38.4-41.3v-4.5.3l-1-12.8 8.3-.5c8-.6 14.6 5.3 15 13 1 11.2 6 21 14 28.5 8.5 7.2 19.2 10.7 30 10 11-1 21-6 28.4-14.2 7.2-8.5 10.7-19 10-30z"/>
    <path fill="#336ebe" d="M404.3 289.4s-1.7-1-2-1c.4 0 .7.4 1.2.6l.8.3z"/>
    <path fill="#176fc0" d="M366.4 362h-.3.6-.2zm55.4-47.4c-2.4-10.8-9.2-20-18.3-25.6l-7.7-4-3.8-1.3c-17.4-6.3-36-7.2-54-3.2-25 6-46.3 21.3-60 43.2-9.7 15.7-14.8 33.4-14.6 51.3 0 7.2.8 14.6 2.4 22l4.8 20.6v.5l.3.6 8 34.7c5 22.2 27.2 36 49.3 31 10.7-2.5 20-9 25.6-18.5 5.8-9.5 7.6-20.4 5.2-31.2l-8-34.8-.2-.3v-.6l-5-21-.2-3c0-6.5 4.4-12.4 11-14 2.2-.4 4.8-.4 7.4.4l.4.2.7.2 2 .8c-.3-.2-.4-.4-.7-.4l1 .2c7.6 2.7 15.8 3.4 23.4 1.6 19-4.5 32-21.4 32-40.3 0-3-.6-6.3-1.2-9z"/>
    <path fill="#336ebe" d="M934.6 399.2h-10.3v-11.7h10.3v11.7z"/>
    <path fill="#00adee" d="M750.7 369.4c-2.7-39.8-34.5-72.3-74.2-75.8-39.7-3.2-76.5 23.4-86 62.2-1 4-1.5 8-2 12.2l-1.6 21V390l-3.3 35.8v2.4c0 6 2 11.8 6 16.6 4.5 5 10.8 8.5 17.7 9 6.8.6 13.6-1.5 18.7-6 5.4-4.4 8.7-10.7 9.4-17.6l2.8-36 .2-.3v-.4l2-21c.6-8 4-15.2 10.2-20.3 6-5 13.7-7.5 21.4-7 16.3 1.4 28.3 16 27 32l-1.7 21.4v.5l-.2.6-3 35.4c-1.2 14.2 9.5 26.7 23.6 28.2 7 .4 13.6-1.8 19-6 5.3-4.6 8.5-10.8 9-17.7l3.2-35.7v-.5-.3l1.8-21.4.3-7-.3-5.4z"/>
    <path fill="none" stroke="#fefefe" stroke-width="3.2" stroke-miterlimit="1" d="M750.7 369.4c-2.7-39.8-34.5-72.3-74.2-75.8-39.7-3.2-76.5 23.4-86 62.2-1 4-1.5 8-2 12.2l-1.6 21V390l-3.3 35.8v2.4c0 6 2 11.8 6 16.6 4.5 5 10.8 8.5 17.7 9 6.8.6 13.6-1.5 18.7-6 5.4-4.4 8.7-10.7 9.4-17.6l2.8-36 .2-.3v-.4l2-21c.6-8 4-15.2 10.2-20.3 6-5 13.7-7.5 21.4-7 16.3 1.4 28.3 16 27 32l-1.7 21.4v.5l-.2.6-3 35.4c-1.2 14.2 9.5 26.7 23.6 28.2 7 .4 13.6-1.8 19-6 5.3-4.6 8.5-10.8 9-17.7l3.2-35.7v-.5-.3l1.8-21.4.3-7-.3-5.4z"/>
    <path fill="#00adee" d="M262.2 378c-4-5.4-10-9-17-10.2-14-2.2-27.3 7.4-29.5 21.5-2.6 16-17.8 27.2-33.8 24.6-16.2-2.6-27-17.8-24.6-33.8l6.8-41 13.7 2c14 2.5 27.3-7.3 29.7-21.4 0-1.2.3-2.8.3-4.3 0-5.4-1.8-10.7-5-15-4-5.6-10-9.5-17-10.4 0 0-7-1-13.7-2.2.2-.6.3-2 .3-2 .5-1.3.5-2.8.5-4 0-5.5-1.6-10.8-4.8-15.2-4.2-5.6-10-9.5-17-10.4-6.7-1.2-13.6.4-19.2 4.6-5.4 4.2-9.3 10-10.2 17l-.8 4.4c-9.8 2.4-17.5 10.3-19 20.7-.4 1.2-.4 2.6-.4 4 0 8.8 4.6 17.2 12 21.6-1.8 9.8-7.2 43.2-7.2 43.2-.6 4.5-1 8.8-1 13.2 0 39.2 28.5 74 68.5 80.3 21.2 3.2 42.6-1.8 60.4-14.6 17.4-13 29-31.8 32.3-53l.3-4.4c0-5.5-1.6-10.6-4.8-15.2z"/>
    <path fill="none" stroke="#fefefe" stroke-width="3.2" stroke-miterlimit="1" d="M262.2 378c-4-5.4-10-9-17-10.2-14-2.2-27.3 7.4-29.5 21.5-2.6 16-17.8 27.2-33.8 24.6-16.2-2.6-27-17.8-24.6-33.8l6.8-41 13.7 2c14 2.5 27.3-7.3 29.7-21.4 0-1.2.3-2.8.3-4.3 0-5.4-1.8-10.7-5-15-4-5.6-10-9.5-17-10.4 0 0-7-1-13.7-2.2.2-.6.3-2 .3-2 .5-1.3.5-2.8.5-4 0-5.5-1.6-10.8-4.8-15.2-4.2-5.6-10-9.5-17-10.4-6.7-1.2-13.6.4-19.2 4.6-5.4 4.2-9.3 10-10.2 17l-.8 4.4c-9.8 2.4-17.5 10.3-19 20.7-.4 1.2-.4 2.6-.4 4 0 8.8 4.6 17.2 12 21.6-1.8 9.8-7.2 43.2-7.2 43.2-.6 4.5-1 8.8-1 13.2 0 39.2 28.5 74 68.5 80.3 21.2 3.2 42.6-1.8 60.4-14.6 17.4-13 29-31.8 32.3-53l.3-4.4c0-5.5-1.6-10.6-4.8-15.2z"/>
    <path fill="#00adee" d="M576.5 372.5l-2-19v-.4-.5l-4-37.6c-1.4-14.2-14.2-24.6-28.3-23.3-6.8.8-13 4-17.4 9.6-4.3 5.4-6.2 12-5.6 19l3.7 37.6v1.2-.3l2 18.6c1 8-1.5 15.7-6.4 21.8-5 6.2-12 10-20 10.8-16.2 1.6-30.6-10.2-32.4-26.5l-1.7-19c0 .3 0 0-.2-.2v-.7l-3.8-37.6c-1.5-14-14.3-24.6-28.5-23.2-6.7.8-13 4.2-17.4 9.6-3.7 4.5-5.8 10.3-5.8 16.2 0 1 0 2 .2 2.7l3.8 37.6v.6c.2.2.2.5.2.5l1.7 19c2.4 21.7 12.8 41 29.8 54.8 16.8 14 38 20.2 59.3 18 42-4.2 73.2-40 73-81.2 0-2.8 0-5.4-.3-8z"/>
    <path fill="none" stroke="#fefefe" stroke-width="3.2" stroke-miterlimit="1" d="M576.5 372.5l-2-19v-.4-.5l-4-37.6c-1.4-14.2-14.2-24.6-28.3-23.3-6.8.8-13 4-17.4 9.6-4.3 5.4-6.2 12-5.6 19l3.7 37.6v1.2-.3l2 18.6c1 8-1.5 15.7-6.4 21.8-5 6.2-12 10-20 10.8-16.2 1.6-30.6-10.2-32.4-26.5l-1.7-19c0 .3 0 0-.2-.2v-.7l-3.8-37.6c-1.5-14-14.3-24.6-28.5-23.2-6.7.8-13 4.2-17.4 9.6-3.7 4.5-5.8 10.3-5.8 16.2 0 1 0 2 .2 2.7l3.8 37.6v.6c.2.2.2.5.2.5l1.7 19c2.4 21.7 12.8 41 29.8 54.8 16.8 14 38 20.2 59.3 18 42-4.2 73.2-40 73-81.2 0-2.8 0-5.4-.3-8z"/>
    <path fill="#00adee" d="M923 429c-1.7-26.3-16-48.8-36.4-62.4 8-13.8 12.3-30 11.2-47-.7-7-3.7-13.4-9-17.8-5.3-4.7-12-7-19-6.4-6.8.4-12.8 3.5-17.5 8.8-4 4.8-6.2 10.8-6.2 17v3.8c.2 15.5-11.8 28.4-27.3 29.7l-6 .3-2-31.3-4.3-64.7c-.5-6.8-3.5-13-8.8-17.7-5.3-4.7-12-6.7-19-6.3-14 1-24.8 13.3-24 27.6l4.3 65.6 1.3 21.2.2 1.2 3.7 52v.7l2.5 38c.5 6.8 4 13 9 17.6 5 4.7 11.8 7 18.7 6.4 7-.4 13-3.8 17.8-9 4.6-5 6.7-12 6.2-18.8v-1.4l-2-29.5 5.8-.3h.2l9-.6 6.4-.5 2.2-.2c16.2-1 30.2 11.3 31.5 27.6.5 7 3.5 13.3 8.8 17.6 5.3 4.7 12 7 18.7 6.6 13.8-1 24-12.6 24-26V429z"/>
    <path fill="none" stroke="#fefefe" stroke-width="3.2" stroke-miterlimit="1" d="M923 429c-1.7-26.3-16-48.8-36.4-62.4 8-13.8 12.3-30 11.2-47-.7-7-3.7-13.4-9-17.8-5.3-4.7-12-7-19-6.4-6.8.4-12.8 3.5-17.5 8.8-4 4.8-6.2 10.8-6.2 17v3.8c.2 15.5-11.8 28.4-27.3 29.7l-6 .3-2-31.3-4.3-64.7c-.5-6.8-3.5-13-8.8-17.7-5.3-4.7-12-6.7-19-6.3-14 1-24.8 13.3-24 27.6l4.3 65.6 1.3 21.2.2 1.2 3.7 52v.7l2.5 38c.5 6.8 4 13 9 17.6 5 4.7 11.8 7 18.7 6.4 7-.4 13-3.8 17.8-9 4.6-5 6.7-12 6.2-18.8v-1.4l-2-29.5 5.8-.3h.2l9-.6 6.4-.5 2.2-.2c16.2-1 30.2 11.3 31.5 27.6.5 7 3.5 13.3 8.8 17.6 5.3 4.7 12 7 18.7 6.6 13.8-1 24-12.6 24-26V429z"/>
    <path fill="#00adee" d="M391 294.7s0 .2.2.2h-.2v-.3z"/>
    <path fill="none" stroke="#fefefe" stroke-width="3.2" stroke-miterlimit="1" d="M391 294.7s0 .2.2.2h-.2v-.3z"/>
    <path fill="#00adee" d="M391.2 295h.2c0 .2.3.2.3.2l-.5-.3z"/>
    <path fill="none" stroke="#fefefe" stroke-width="3.2" stroke-miterlimit="1" d="M391.2 295h.2c0 .2.3.2.3.2l-.5-.3z"/>
    <path fill="#00adee" d="M403 311.2c-1.4-6.7-5.6-12.5-11.6-16.2-.4 0-4.2-2.2-4.2-2.2l-4-1.4c-14.7-5.2-30.2-6-45.3-2.4-37.7 8.6-63 42.4-63 79.5 0 6 .7 12 2 18.2l5 20.7V408l8.2 35.2c1.5 6.7 5.6 12.5 11.6 16.2 5.7 3.6 12.6 4.8 19.3 3.2 6.8-1.6 12.6-5.6 16.3-11.6 2.5-4 3.8-9 3.8-13.7 0-2 0-4-.5-6l-8-34.7-.2-.4v-.4l-5-20.8c-.4-2.2-.6-4.4-.6-6.7 0-13.4 9.3-25.6 23-29 5-1 10.3-1 15.3.7.3.2 1 .3 1.6.5l2 .6h-.6c5 2.2 10.6 2.7 15.8 1.4 12-3 20.2-13.6 20-25.4 0-1.8 0-3.7-.8-5.8z"/>
    <path fill="none" stroke="#fefefe" stroke-width="3.2" stroke-miterlimit="1" d="M403 311.2c-1.4-6.7-5.6-12.5-11.6-16.2-.4 0-4.2-2.2-4.2-2.2l-4-1.4c-14.7-5.2-30.2-6-45.3-2.4-37.7 8.6-63 42.4-63 79.5 0 6 .7 12 2 18.2l5 20.7V408l8.2 35.2c1.5 6.7 5.6 12.5 11.6 16.2 5.7 3.6 12.6 4.8 19.3 3.2 6.8-1.6 12.6-5.6 16.3-11.6 2.5-4 3.8-9 3.8-13.7 0-2 0-4-.5-6l-8-34.7-.2-.4v-.4l-5-20.8c-.4-2.2-.6-4.4-.6-6.7 0-13.4 9.3-25.6 23-29 5-1 10.3-1 15.3.7.3.2 1 .3 1.6.5l2 .6h-.6c5 2.2 10.6 2.7 15.8 1.4 12-3 20.2-13.6 20-25.4 0-1.8 0-3.7-.8-5.8z"/>
    <path fill="#00adee" d="M969.3 330c-1.5-.2-8-.7-10-.7l-23.8-1.3c-7-.3-13.4 2-18.5 6.7-5.2 4.7-8.2 11-8.5 18-.3 6.8 2 13.5 6.5 18.5 4.8 5.3 11 8.3 18 8.6l4.6.4h4l-2 53c-.4 14.3 10.6 26.3 25 26.8 14.3.6 26-10.6 26.6-24.8l3-78.4c.5-14.2-10.7-26.2-25-26.7z"/>
    <path fill="none" stroke="#fefefe" stroke-width="3.2" stroke-miterlimit="1" d="M969.3 330c-1.5-.2-8-.7-10-.7l-23.8-1.3c-7-.3-13.4 2-18.5 6.7-5.2 4.7-8.2 11-8.5 18-.3 6.8 2 13.5 6.5 18.5 4.8 5.3 11 8.3 18 8.6l4.6.4h4l-2 53c-.4 14.3 10.6 26.3 25 26.8 14.3.6 26-10.6 26.6-24.8l3-78.4c.5-14.2-10.7-26.2-25-26.7z"/>
    <path fill="#eb008b" d="M964.6 245c-9-.4-18 3-24.6 9.2-7 6.4-11 15-11.2 24.2-.3 9 3 18 9.4 24.8 6 7 14.8 11 24 11.2 9 .3 18-3 24.8-9.3 6.8-6.3 10.6-14.8 11-24v-1.5c0-18.4-14.6-33.7-33.4-34.5z"/>
    <path fill="none" stroke="#fefefe" stroke-width="3.2" stroke-miterlimit="1" d="M964.6 245c-9-.4-18 3-24.6 9.2-7 6.4-11 15-11.2 24.2-.3 9 3 18 9.4 24.8 6 7 14.8 11 24 11.2 9 .3 18-3 24.8-9.3 6.8-6.3 10.6-14.8 11-24v-1.5c0-18.4-14.6-33.7-33.4-34.5z"/>
    <path fill="#fefefe" d="M977.4 285c-2-.8-4.4 0-5.2 2.2-1.8 3.7-5.5 6-9.5 5.4-2 0-3.7-1-5.3-2.4l-.6-.6-.2-.2c-1.4-2-2.2-4.3-2-6.7v-1.4l.8-5.8 5.2.8c2.3.2 4.2-1.6 4.7-3.7 0-2.2-1.6-4.4-4-4.6l-5-.6.2-2.4c0-2.4-1.5-4.4-3.7-4.7-2.2 0-4.3 1.5-4.5 3.7 0 0 0 1.4-.3 2.6-2 0-4 1.4-4.2 3.6 0 2 1.3 4 3.4 4.5-.2.8-.8 7-.8 7-.3 4 .6 8 2.6 11 0 .3.3.4.4.6l.8 1.3c3 3.5 7 6 11.7 6.4 7.4.8 14.5-3.4 17.7-10.4.8-2-.2-4.7-2.3-5.5zM979 268c-3.3-.3-6 2-6.5 5.3-.3 3.3 2 6.2 5.3 6.5 3.2.4 6-2 6.5-5.2.3-3.2-2-6.3-5.3-6.6z"/>
  </g>
</svg>
